<svg id="Capa_1" enable-background="new 0 0 512 512" height="512" viewBox="0 0 512 512" width="512" xmlns="http://www.w3.org/2000/svg"><g><path d="m512 256c0 141.385-114.615 256-256 256s-256-114.615-256-256 114.615-256 256-256 256 114.615 256 256z" fill="#40c1fa"/><path d="m476.549 256c0 112.484-91.186 203.67-203.67 203.67s-203.671-91.186-203.671-203.67 91.186-203.67 203.67-203.67 203.671 91.186 203.671 203.67z" fill="#07a9f0"/><path d="m277.255 488.106c0 6.768-13.946 12.255-31.149 12.255s-31.149-5.487-31.149-12.255 13.946-12.255 31.149-12.255 31.149 5.487 31.149 12.255z" fill="#0691ce"/><path d="m145 147.558c0 2.761-2.239 5-5 5h-70c-2.761 0-5-2.239-5-5s2.239-5 5-5h70c2.761 0 5 2.239 5 5zm-75-15h70c2.761 0 5-2.239 5-5s-2.239-5-5-5h-70c-2.761 0-5 2.239-5 5s2.239 5 5 5zm70 30h-30c-2.761 0-5 2.239-5 5s2.239 5 5 5h30c2.761 0 5-2.239 5-5s-2.239-5-5-5z" fill="#b4e7fd"/><path d="m350 229.833v171.116c0 16.569-13.431 30-30 30h-49.328l-18.785 53.51c-1.13 3.219-4.17 5.374-7.582 5.374-3.171 0-6.046-1.865-7.338-4.761l-24.154-54.123h-164.813c-16.569 0-30-13.431-30-30v-171.116c0-16.569 13.431-30 30-30h272c16.569 0 30 13.432 30 30z" fill="#5f55af"/><path d="m81.191 431h-33.191c-16.569 0-30-13.431-30-30v-171c0-16.569 13.431-30 30-30h33.191c-16.568 0-30 13.431-30 30v171c0 16.569 13.432 30 30 30z" fill="#51489a"/><path d="m300 273.558v114c0 5.523-4.477 10-10 10h-74.31c-8.284 0-15-6.716-15-15v-129h79.31c11.046 0 20 8.954 20 20z" fill="#cecece"/><path d="m230 252.558v119c0 5.523-4.477 10-10 10h-140c-11.046 0-20-8.954-20-20v-114c0-5.523 4.477-10 10-10h143.783c8.956 0 16.217 6.716 16.217 15z" fill="#e7e7e7"/><path d="m241.217 381.558h-133.373c-11.046 0-20-8.954-20-20v-114c0-5.523 4.477-10 10-10h137.156c8.956 0 16.217 6.716 16.217 15v119c0 5.523-4.477 10-10 10z" fill="#fff5f5"/><path d="m210 308c0 22.091-17.909 40-40 40s-40-17.909-40-40 17.909-40 40-40 40 17.909 40 40z" fill="#ea552d"/><path d="m500 54v171.116c0 16.569-13.431 30-30 30h-164.812l-24.154 54.123c-1.292 2.896-4.167 4.761-7.338 4.761-3.412 0-6.452-2.155-7.582-5.374l-18.785-53.51h-49.329c-16.569 0-30-13.431-30-30v-171.116c0-16.569 13.431-30 30-30h272c16.569 0 30 13.431 30 30z" fill="#ffb52d"/><path d="m231.191 255h-33.191c-16.569 0-30-13.431-30-30v-171c0-16.569 13.431-30 30-30h33.191c-16.568 0-30 13.431-30 30v171c0 16.569 13.432 30 30 30z" fill="#ff9f22"/><path d="m445.444 132.558h-90.754v-57h79.31c11.046 0 20 8.954 20 20v28.444c0 4.726-3.831 8.556-8.556 8.556z" fill="#ea552d"/><path d="m444 219.558h-74.31c-8.284 0-15-6.716-15-15v-42h91.164c4.499 0 8.146 3.647 8.146 8.146v38.853c0 5.524-4.477 10.001-10 10.001z" fill="#51489a"/><path d="m454 171.558h-99.31v-48h99.31z" fill="#e7e7e7"/><path d="m380 106.809v49.499c0 4.97-4.029 9-9 9h-148c-4.971 0-9-4.03-9-9v-49.499c0-4.971 4.029-9 9-9h148c4.971 0 9 4.029 9 9z" fill="#fff5f5"/><path d="m254.067 165.308h-31.067c-4.971 0-9-4.03-9-9v-49.499c0-4.971 4.029-9 9-9h31.067c-4.971 0-9 4.029-9 9v49.499c0 4.97 4.03 9 9 9z" fill="#e7e7e7"/><path d="m380 74.558v33h-166v-38c0-5.523 4.477-10 10-10h141c8.284 0 15 6.716 15 15z" fill="#f77026"/><path d="m245.067 69.558v38h-31.067v-38c0-5.523 4.477-10 10-10h31.067c-5.523 0-10 4.477-10 10z" fill="#ea552d"/><path d="m370 203.558h-136c-11.046 0-20-8.954-20-20v-28h166v38c0 5.523-4.477 10-10 10z" fill="#5f55af"/><path d="m265.067 203.558h-31.067c-11.046 0-20-8.954-20-20v-28h31.067v28c0 11.046 8.955 20 20 20z" fill="#51489a"/><path d="m457.58 265.347c-1.953 1.953-5.119 1.953-7.071 0l-9.142-9.142v78.394c0 2.762-2.239 5-5 5s-5-2.238-5-5v-78.394l-9.142 9.142c-1.953 1.953-5.119 1.953-7.071 0-.976-.976-1.464-2.256-1.464-3.535s.488-2.56 1.464-3.535l17.678-17.678c1.953-1.953 5.119-1.953 7.071 0l17.678 17.678c1.951 1.951 1.951 5.119-.001 7.07z" fill="#453d83"/><path d="m416.311 360.921c0 1.279-.488 2.56-1.464 3.535l-17.678 17.678c-1.953 1.953-5.119 1.953-7.071 0l-17.678-17.678c-1.952-1.951-1.952-5.119 0-7.07 1.953-1.953 5.119-1.953 7.071 0l9.142 9.142v-78.394c0-2.762 2.239-5 5-5s5 2.238 5 5v78.394l9.142-9.142c1.953-1.953 5.119-1.953 7.071 0 .977.976 1.465 2.256 1.465 3.535z" fill="#fff5f5"/></g></svg>